<?xml version="1.0" standalone="no"?>
<!DOCTYPE svg PUBLIC "-//W3C//DTD SVG 20010904//EN"
 "http://www.w3.org/TR/2001/REC-SVG-20010904/DTD/svg10.dtd">
<svg version="1.0" xmlns="http://www.w3.org/2000/svg"
 width="230.000000pt" height="230.000000pt" viewBox="0 0 230.000000 230.000000"
 preserveAspectRatio="xMidYMid meet">
<metadata>
Created by potrace 1.15, written by Peter Selinger 2001-2017
</metadata>
<g transform="translate(0.000000,230.000000) scale(0.100000,-0.100000)"
fill="#000000" stroke="none">
<path d="M169 2271 c-52 -35 -107 -90 -143 -145 l-26 -39 0 -936 c0 -852 1
-939 16 -961 32 -47 139 -152 176 -171 36 -18 69 -19 958 -19 1056 0 948 -10
1056 102 103 106 94 0 94 1056 l0 930 -44 58 c-48 65 -72 88 -131 128 l-40 26
-936 0 -936 0 -44 -29z m1003 -196 c31 -2 57 -11 80 -27 73 -55 124 -76 219
-92 54 -9 115 -14 136 -10 37 6 44 3 92 -40 39 -35 60 -46 84 -46 26 0 43 -11
89 -57 74 -76 118 -188 118 -303 0 -46 6 -82 20 -111 11 -24 20 -60 20 -79 0
-25 9 -43 35 -70 33 -34 34 -39 45 -149 l12 -113 -33 -34 c-26 -27 -31 -38
-26 -63 9 -46 -3 -68 -89 -159 -57 -59 -86 -82 -103 -82 -15 0 -45 -19 -81
-52 -31 -29 -81 -72 -112 -94 -44 -33 -57 -49 -62 -78 -9 -45 -27 -63 -79 -77
-26 -6 -59 -27 -84 -52 -41 -39 -46 -41 -100 -40 -32 1 -69 -5 -84 -13 -32
-16 -105 -19 -114 -4 -3 6 -19 10 -35 10 -16 0 -66 12 -112 27 -62 20 -95 37
-132 70 -42 38 -54 43 -96 43 -33 0 -55 6 -74 21 -23 18 -30 19 -62 9 -49 -16
-95 -5 -129 30 -18 18 -51 37 -82 46 -45 13 -53 20 -63 49 -6 19 -28 49 -49
67 -32 28 -41 46 -64 128 -29 103 -33 150 -16 181 8 16 7 25 -5 38 -12 13 -16
39 -16 96 0 74 -2 81 -30 110 -38 40 -48 90 -26 137 11 22 15 54 14 95 -3 55
0 65 25 90 15 16 27 36 27 44 0 24 53 100 101 146 37 34 53 42 99 48 39 5 63
15 83 33 15 14 27 29 27 34 0 4 27 40 60 80 33 39 60 74 60 79 0 4 21 17 48
30 26 12 64 37 85 56 40 35 76 42 121 22 22 -10 29 -8 58 16 30 26 36 27 93
20 33 -4 81 -9 107 -10z"/>
<path d="M909 1956 c-37 -25 -91 -75 -122 -111 -58 -71 -77 -119 -77 -198 0
-34 -6 -49 -25 -67 -32 -30 -31 -37 6 -110 39 -74 149 -182 218 -214 29 -13
60 -31 70 -40 16 -15 20 -13 49 17 l32 33 -50 49 c-39 39 -47 52 -39 66 5 10
9 46 9 81 -2 170 -4 160 35 193 34 29 35 31 23 64 -12 30 -11 35 6 45 47 27
95 80 125 136 32 59 32 62 15 81 -15 16 -31 19 -113 19 l-96 0 -66 -44z"/>
<path d="M1445 1825 c-16 -8 -46 -14 -66 -15 -20 0 -64 -14 -100 -32 -52 -27
-68 -41 -83 -74 -10 -22 -28 -45 -40 -50 -46 -20 -95 -181 -82 -268 4 -24 16
-52 26 -61 23 -21 19 -24 136 87 53 50 80 68 110 74 21 4 50 15 63 25 18 15
41 19 100 19 42 0 93 5 113 10 31 9 44 7 77 -10 56 -28 160 -28 186 0 32 36
13 86 -60 157 -36 34 -77 64 -93 68 -16 3 -42 19 -57 35 -24 25 -37 30 -76 30
-26 0 -51 5 -54 10 -9 14 -64 11 -100 -5z"/>
<path d="M434 1638 c-34 -36 -95 -120 -113 -156 -7 -13 -17 -50 -22 -84 -9
-55 -8 -63 10 -82 17 -18 19 -27 10 -65 -12 -55 -8 -66 33 -91 18 -10 39 -34
48 -52 15 -33 83 -90 142 -119 18 -10 72 -23 119 -29 79 -12 88 -11 131 8 25
11 64 23 87 27 32 5 57 21 101 62 33 30 60 61 60 68 0 27 -36 45 -92 45 -63 0
-155 29 -211 66 -21 13 -48 29 -61 34 -16 6 -27 20 -31 40 -5 22 -21 41 -52
63 -44 31 -45 33 -40 77 5 39 2 49 -21 73 -21 22 -26 37 -25 70 1 38 -18 77
-37 77 -3 0 -20 -15 -36 -32z"/>
<path d="M1431 1409 c-95 -25 -126 -42 -178 -92 l-43 -41 22 -23 c12 -13 29
-23 39 -23 9 0 61 -12 115 -26 75 -19 106 -32 129 -55 17 -16 40 -29 50 -29
29 0 40 -11 54 -50 6 -19 29 -51 51 -71 33 -30 40 -43 40 -74 0 -25 8 -47 25
-67 19 -22 25 -41 25 -77 0 -59 32 -110 57 -90 8 7 47 63 87 123 71 109 72
112 75 184 2 60 -1 76 -18 98 -13 16 -21 41 -21 65 0 34 -7 44 -71 102 -82 75
-165 125 -181 109 -8 -8 -17 -4 -30 13 -20 26 -74 45 -123 44 -16 0 -63 -9
-104 -20z"/>
<path d="M1257 1141 c-37 -41 -38 -52 -11 -96 21 -35 37 -161 25 -197 -6 -17
-11 -45 -11 -62 0 -50 -77 -178 -154 -256 -57 -59 -77 -73 -117 -82 -27 -6
-56 -19 -64 -28 -14 -15 -13 -18 2 -33 10 -8 53 -26 96 -38 68 -20 83 -22 122
-11 25 7 58 12 74 12 33 0 135 34 169 56 13 8 33 31 43 49 11 19 30 37 42 41
40 12 57 35 57 76 0 43 17 84 49 112 16 15 18 22 10 38 -15 27 -14 85 1 103
10 12 10 19 -2 33 -9 9 -18 29 -22 44 -3 14 -30 62 -59 105 -46 69 -58 80
-101 95 -27 9 -64 31 -81 48 l-32 31 -36 -40z"/>
<path d="M1069 1037 c-24 -24 -64 -66 -89 -93 -41 -45 -54 -52 -135 -76 -52
-16 -101 -24 -117 -21 -15 3 -46 -2 -68 -11 -54 -21 -71 -20 -112 8 -24 16
-56 25 -104 30 -63 6 -72 5 -88 -13 -46 -51 38 -193 143 -242 25 -12 54 -29
65 -38 25 -22 112 -41 125 -28 7 7 14 7 23 0 22 -17 146 11 225 51 83 41 149
111 200 209 29 54 33 72 33 138 0 62 -4 81 -21 103 -11 14 -24 26 -28 26 -5 0
-28 -19 -52 -43z"/>
</g>
</svg>
