<svg xmlns="http://www.w3.org/2000/svg" xmlns:xlink="http://www.w3.org/1999/xlink" viewBox="0 0 96 44" fill="#fff" fill-rule="evenodd" stroke="#000" stroke-linecap="round" stroke-linejoin="round"><use xlink:href="#A" x=".5" y=".5"/><symbol id="A" overflow="visible"><g stroke="none" fill-rule="nonzero"><path d="M62.998 16.35c-1.7 0-2.968.835-2.968 2.845 0 1.5.835 2.565 2.875 2.565 1.73 0 2.905-1.02 2.905-2.628 0-1.825-1.05-2.782-2.812-2.782zm-3.4 14.2c-.403.494-.804 1.02-.804 1.625 0 1.235 1.575 1.608 3.74 1.608 1.793 0 4.235-.125 4.235-1.793 0-1-1.175-1.052-2.66-1.145l-4.5-.308zm9.15-14.098c.555.713 1.144 1.7 1.144 3.123 0 3.43-2.7 5.44-6.584 5.44-1 0-1.875-.125-2.443-.278l-1.02 1.625 3.03.185c5.35.34 8.5.496 8.5 4.605 0 3.556-3.12 5.562-8.5 5.562-5.595 0-7.727-1.422-7.727-3.875 0-1.4.62-2.133 1.7-3.154-1.02-.43-1.36-1.204-1.36-2.038 0-.68.34-1.3.897-1.875l1.916-1.855c-1.515-.74-2.66-2.35-2.66-4.625 0-3.555 2.35-5.996 7.08-5.996 1.33 0 2.134.123 2.845.3h6.028v2.627l-2.845.216m8.282-5.615c-1.75 0-2.782-1.02-2.782-2.784s1.02-2.72 2.782-2.72c1.793 0 2.813.96 2.813 2.72s-1.02 2.784-2.812 2.784zm-4 18.578v-2.44l1.578-.216c.432-.062.495-.155.495-.62V17.04c0-.34-.093-.556-.403-.65l-1.67-.587.34-2.502h6.4v12.83c0 .495.03.556.495.62l1.575.216v2.438h-8.813m21.05-1.2c-1.33.65-3.278 1.25-5.04 1.25-3.68 0-5.07-1.482-5.07-4.977v-8.1c0-.185 0-.3-.25-.3h-2.15v-2.75c2.72-.3 3.803-1.67 4.143-5.04h2.937v4.4c0 .215 0 .3.248.3h4.36v3.1h-4.618v7.375c0 1.825.434 2.535 2.1 2.535.866 0 1.75-.216 2.504-.494l.835 2.72" fill="#362701"/><path d="M41.638 19.33L23.106.8C22.04-.267 20.31-.267 19.24.8l-3.847 3.848 4.88 4.88c1.135-.383 2.435-.125 3.337.777a3.25 3.25 0 0 1 .771 3.36l4.704 4.704a3.26 3.26 0 0 1 3.36.77c1.27 1.27 1.27 3.33-.001 4.6s-3.33 1.27-4.6-.001c-.955-.956-1.2-2.36-.707-3.537l-4.375-4.375V27.37c.3.154.602.357.86.615 1.27 1.27 1.27 3.328 0 4.6a3.25 3.25 0 0 1-4.599 0c-1.27-1.273-1.27-3.33 0-4.6a3.27 3.27 0 0 1 1.065-.71v-11.65c-.375-.16-.75-.394-1.065-.7a3.25 3.25 0 0 1-.7-3.555l-4.812-4.813L.798 19.243a2.74 2.74 0 0 0 0 3.866L19.33 41.64c1.066 1.067 2.797 1.067 3.865 0l18.442-18.443a2.74 2.74 0 0 0 0-3.866" fill="#f03c2e"/></g></symbol></svg>